<svg width="23" height="22" viewBox="0 0 23 22" fill="none" xmlns="http://www.w3.org/2000/svg">
<g id="emoji_add_regular_icon_203615 (1) 1">
<path id="Vector" d="M10.1597 3.70268C14.6141 3.70268 18.2251 7.31374 18.2251 11.7681C18.2251 16.2225 14.6141 19.8335 10.1597 19.8335C5.70534 19.8335 2.09428 16.2225 2.09428 11.7681C2.09428 7.31374 5.70534 3.70268 10.1597 3.70268Z" stroke="black" stroke-width="1.09091"/>
<g id="Group 13">
<path id="Vector_2" d="M12.472 8.62598C12.9625 8.62598 13.36 9.02357 13.36 9.51401C13.36 10.0044 12.9625 10.402 12.472 10.402C11.9816 10.402 11.584 10.0044 11.584 9.51401C11.584 9.02357 11.9816 8.62598 12.472 8.62598Z" fill="black"/>
<path id="Vector_3" d="M7.84506 8.62598C8.3355 8.62598 8.73309 9.02357 8.73309 9.51401C8.73309 10.0044 8.3355 10.402 7.84506 10.402C7.35462 10.402 6.95703 10.0044 6.95703 9.51401C6.95703 9.02357 7.35462 8.62598 7.84506 8.62598Z" fill="black"/>
<path id="Ellipse 6" d="M13.0085 12.8367C12.7532 14.506 11.6858 15.3203 10.0541 15.3203C8.51119 15.213 7.37213 14.4864 7.09961 12.8367" stroke="black" stroke-width="1.09091" stroke-linecap="round"/>
</g>
<g id="Group 12">
<g id="Union">
<mask id="path-5-outside-1_1858_1408" maskUnits="userSpaceOnUse" x="12.1816" y="0.90918" width="10" height="10" fill="black">
<rect fill="white" x="12.1816" y="0.90918" width="10" height="10"/>
<path fill-rule="evenodd" clip-rule="evenodd" d="M17.4544 2.90918C17.1531 2.90918 16.9089 3.15339 16.9089 3.45463V5.45455H14.7271C14.4258 5.45455 14.1816 5.69875 14.1816 6C14.1816 6.30125 14.4258 6.54545 14.7271 6.54545H16.9089V8.72736C16.9089 9.02861 17.1531 9.27282 17.4544 9.27282C17.7556 9.27282 17.9998 9.02861 17.9998 8.72736V6.54545H19.9998C20.3011 6.54545 20.5453 6.30125 20.5453 6C20.5453 5.69875 20.3011 5.45455 19.9998 5.45455H17.9998V3.45463C17.9998 3.15339 17.7556 2.90918 17.4544 2.90918Z"/>
</mask>
<path fill-rule="evenodd" clip-rule="evenodd" d="M17.4544 2.90918C17.1531 2.90918 16.9089 3.15339 16.9089 3.45463V5.45455H14.7271C14.4258 5.45455 14.1816 5.69875 14.1816 6C14.1816 6.30125 14.4258 6.54545 14.7271 6.54545H16.9089V8.72736C16.9089 9.02861 17.1531 9.27282 17.4544 9.27282C17.7556 9.27282 17.9998 9.02861 17.9998 8.72736V6.54545H19.9998C20.3011 6.54545 20.5453 6.30125 20.5453 6C20.5453 5.69875 20.3011 5.45455 19.9998 5.45455H17.9998V3.45463C17.9998 3.15339 17.7556 2.90918 17.4544 2.90918Z" fill="#101010"/>
<path d="M16.9089 5.45455V6.54545H17.9998V5.45455H16.9089ZM14.1816 6H13.0907H14.1816ZM16.9089 6.54545H17.9998V5.45455H16.9089V6.54545ZM17.9998 6.54545V5.45455H16.9089V6.54545H17.9998ZM17.9998 5.45455H16.9089V6.54545H17.9998V5.45455ZM17.9998 3.45463C17.9998 3.75588 17.7556 4.00009 17.4544 4.00009V1.81827C16.5506 1.81827 15.818 2.5509 15.818 3.45463H17.9998ZM17.9998 5.45455V3.45463H15.818V5.45455H17.9998ZM14.7271 6.54545H16.9089V4.36364H14.7271V6.54545ZM15.2725 6C15.2725 6.30125 15.0283 6.54545 14.7271 6.54545V4.36364C13.8234 4.36364 13.0907 5.09626 13.0907 6H15.2725ZM14.7271 5.45455C15.0283 5.45455 15.2725 5.69875 15.2725 6H13.0907C13.0907 6.90374 13.8234 7.63636 14.7271 7.63636V5.45455ZM16.9089 5.45455H14.7271V7.63636H16.9089V5.45455ZM17.9998 8.72736V6.54545H15.818V8.72736H17.9998ZM17.4544 8.18191C17.7556 8.18191 17.9998 8.42612 17.9998 8.72736H15.818C15.818 9.6311 16.5506 10.3637 17.4544 10.3637V8.18191ZM16.9089 8.72736C16.9089 8.42612 17.1531 8.18191 17.4544 8.18191V10.3637C18.3581 10.3637 19.0907 9.6311 19.0907 8.72736H16.9089ZM16.9089 6.54545V8.72736H19.0907V6.54545H16.9089ZM19.9998 5.45455H17.9998V7.63636H19.9998V5.45455ZM19.4544 6C19.4544 5.69875 19.6986 5.45455 19.9998 5.45455V7.63636C20.9036 7.63636 21.6362 6.90374 21.6362 6H19.4544ZM19.9998 6.54545C19.6986 6.54545 19.4544 6.30125 19.4544 6H21.6362C21.6362 5.09626 20.9036 4.36364 19.9998 4.36364V6.54545ZM17.9998 6.54545H19.9998V4.36364H17.9998V6.54545ZM16.9089 3.45463V5.45455H19.0907V3.45463H16.9089ZM17.4544 4.00009C17.1531 4.00009 16.9089 3.75588 16.9089 3.45463H19.0907C19.0907 2.5509 18.3581 1.81827 17.4544 1.81827V4.00009Z" fill="white" mask="url(#path-5-outside-1_1858_1408)"/>
</g>
</g>
</g>
</svg>
