<svg xmlns="http://www.w3.org/2000/svg" width="24" height="24" viewBox="0 0 24 24" fill="none">
  <path fill-rule="evenodd" clip-rule="evenodd" d="M2.29961 12.2458C2.29961 7.34599 6.27177 3.37383 11.1716 3.37383C12.4839 3.37383 13.7281 3.65836 14.8472 4.16853C15.1487 4.30597 15.5046 4.17297 15.642 3.87144C15.7795 3.56992 15.6465 3.21407 15.345 3.07662C14.0727 2.49665 12.659 2.17383 11.1716 2.17383C5.60903 2.17383 1.09961 6.68325 1.09961 12.2458C1.09961 17.8084 5.60903 22.3178 11.1716 22.3178C16.7341 22.3178 21.2436 17.8084 21.2436 12.2458C21.2436 11.7975 21.2142 11.3558 21.1573 10.9225C21.1142 10.594 20.8129 10.3626 20.4843 10.4057C20.1558 10.4489 19.9244 10.7502 19.9676 11.0788C20.0177 11.4604 20.0436 11.8499 20.0436 12.2458C20.0436 17.1456 16.0714 21.1178 11.1716 21.1178C6.27177 21.1178 2.29961 17.1456 2.29961 12.2458ZM14.6939 9.76638C14.6939 9.2269 14.2566 8.78955 13.7171 8.78955C13.1776 8.78955 12.7402 9.2269 12.7402 9.76638C12.7402 10.3059 13.1776 10.7432 13.7171 10.7432C14.2566 10.7432 14.6939 10.3059 14.6939 9.76638ZM8.62722 8.78955C9.16671 8.78955 9.60406 9.2269 9.60406 9.76638C9.60406 10.3059 9.16671 10.7432 8.62722 10.7432C8.08774 10.7432 7.65039 10.3059 7.65039 9.76638C7.65039 9.2269 8.08774 8.78955 8.62722 8.78955ZM8.39812 13.3229C8.34412 12.996 8.0353 12.7747 7.70836 12.8287C7.38142 12.8827 7.16016 13.1916 7.21417 13.5185C7.38511 14.5533 7.84031 15.3488 8.53682 15.8951C9.22237 16.4327 10.0878 16.6868 11.0144 16.7512L11.0352 16.7527H11.0561C12.0512 16.7527 12.941 16.5036 13.6292 15.9393C14.3213 15.3717 14.7416 14.5411 14.8991 13.5114C14.9492 13.1839 14.7242 12.8777 14.3967 12.8276C14.0691 12.7775 13.7629 13.0024 13.7128 13.33C13.5895 14.1365 13.2822 14.6719 12.8683 15.0113C12.4542 15.3509 11.8661 15.5492 11.0768 15.5526C10.3161 15.4968 9.71352 15.2929 9.27734 14.9508C8.84813 14.6142 8.52696 14.1028 8.39812 13.3229ZM18.5957 3.10073C18.5957 2.76936 18.8643 2.50073 19.1957 2.50073C19.5271 2.50073 19.7957 2.76936 19.7957 3.10073V5.30073H21.9957C22.3271 5.30073 22.5957 5.56936 22.5957 5.90073C22.5957 6.2321 22.3271 6.50073 21.9957 6.50073H19.7957V8.90073C19.7957 9.2321 19.5271 9.50073 19.1957 9.50073C18.8643 9.50073 18.5957 9.2321 18.5957 8.90073V6.50073H16.1957C15.8643 6.50073 15.5957 6.2321 15.5957 5.90073C15.5957 5.56936 15.8643 5.30073 16.1957 5.30073H18.5957V3.10073Z" fill="white"/>
</svg>