<svg xmlns="http://www.w3.org/2000/svg" width="32" height="32" viewBox="0 0 32 32" fill="none">
  <g filter="url(#filter0_d_1788_7406)">
    <mask id="path-1-inside-1_1788_7406" fill="white">
      <path fill-rule="evenodd" clip-rule="evenodd" d="M28 12C28 18.6274 22.6274 24 16 24C9.37256 24 4 18.6274 4 12C4 5.37256 9.37256 0 16 0C22.6274 0 28 5.37256 28 12ZM21.9489 9.30111C22.3913 8.80766 22.3499 8.04899 21.8564 7.60658C21.363 7.16417 20.6043 7.20555 20.1619 7.69901L14.6407 13.8573L11.5477 11.1038C11.0527 10.6631 10.2942 10.7071 9.85353 11.2021C9.41285 11.6972 9.4569 12.4557 9.9519 12.8963L14.8312 17.2401L21.9489 9.30111Z"/>
    </mask>
    <path fill-rule="evenodd" clip-rule="evenodd" d="M28 12C28 18.6274 22.6274 24 16 24C9.37256 24 4 18.6274 4 12C4 5.37256 9.37256 0 16 0C22.6274 0 28 5.37256 28 12ZM21.9489 9.30111C22.3913 8.80766 22.3499 8.04899 21.8564 7.60658C21.363 7.16417 20.6043 7.20555 20.1619 7.69901L14.6407 13.8573L11.5477 11.1038C11.0527 10.6631 10.2942 10.7071 9.85353 11.2021C9.41285 11.6972 9.4569 12.4557 9.9519 12.8963L14.8312 17.2401L21.9489 9.30111Z" fill="#2BA600"/>
    <path d="M21.9489 9.30111L22.6934 9.96866L21.9489 9.30111ZM20.1619 7.69901L19.4173 7.03146L19.4173 7.03146L20.1619 7.69901ZM14.6407 13.8573L13.9758 14.6042L14.7201 15.2668L15.3853 14.5248L14.6407 13.8573ZM11.5477 11.1038L10.8828 11.8507L11.5477 11.1038ZM9.85353 11.2021L10.6004 11.8671L10.6004 11.8671L9.85353 11.2021ZM9.9519 12.8963L10.6168 12.1494L10.6168 12.1494L9.9519 12.8963ZM14.8312 17.2401L14.1662 17.987L14.9105 18.6496L15.5757 17.9076L14.8312 17.2401ZM16 25C23.1797 25 29 19.1797 29 12H27C27 18.0752 22.0752 23 16 23V25ZM3 12C3 19.1797 8.82028 25 16 25V23C9.92485 23 5 18.0752 5 12H3ZM16 -1C8.82028 -1 3 4.82028 3 12H5C5 5.92485 9.92485 1 16 1V-1ZM29 12C29 4.82028 23.1797 -1 16 -1V1C22.0752 1 27 5.92485 27 12H29ZM21.1889 8.35115C21.2711 8.42488 21.278 8.55133 21.2043 8.63357L22.6934 9.96866C23.5045 9.06399 23.4286 7.67309 22.524 6.86201L21.1889 8.35115ZM20.9065 8.36655C20.9802 8.28431 21.1066 8.27741 21.1889 8.35115L22.524 6.86201C21.6193 6.05092 20.2284 6.12679 19.4173 7.03146L20.9065 8.36655ZM15.3853 14.5248L20.9065 8.36655L19.4173 7.03146L13.8961 13.1897L15.3853 14.5248ZM10.8828 11.8507L13.9758 14.6042L15.3056 13.1104L12.2127 10.3569L10.8828 11.8507ZM10.6004 11.8671C10.6739 11.7846 10.8003 11.7772 10.8828 11.8507L12.2127 10.3569C11.3051 9.54896 9.91453 9.62971 9.10662 10.5372L10.6004 11.8671ZM10.6168 12.1494C10.5343 12.076 10.527 11.9496 10.6004 11.8671L9.10662 10.5372C8.29872 11.4447 8.37946 12.8353 9.28697 13.6433L10.6168 12.1494ZM15.4961 16.4932L10.6168 12.1494L9.28697 13.6433L14.1662 17.987L15.4961 16.4932ZM21.2043 8.63357L14.0866 16.5725L15.5757 17.9076L22.6934 9.96866L21.2043 8.63357Z" fill="url(#paint0_linear_1788_7406)" fill-opacity="0.9" mask="url(#path-1-inside-1_1788_7406)"/>
  </g>
  <defs>
    <filter id="filter0_d_1788_7406" x="0" y="0" width="32" height="32" filterUnits="userSpaceOnUse" color-interpolation-filters="sRGB">
      <feFlood flood-opacity="0" result="BackgroundImageFix"/>
      <feColorMatrix in="SourceAlpha" type="matrix" values="0 0 0 0 0 0 0 0 0 0 0 0 0 0 0 0 0 0 127 0" result="hardAlpha"/>
      <feOffset dy="4"/>
      <feGaussianBlur stdDeviation="2"/>
      <feComposite in2="hardAlpha" operator="out"/>
      <feColorMatrix type="matrix" values="0 0 0 0 0 0 0 0 0 0 0 0 0 0 0 0 0 0 0.25 0"/>
      <feBlend mode="normal" in2="BackgroundImageFix" result="effect1_dropShadow_1788_7406"/>
      <feBlend mode="normal" in="SourceGraphic" in2="effect1_dropShadow_1788_7406" result="shape"/>
    </filter>
    <linearGradient id="paint0_linear_1788_7406" x1="16" y1="0" x2="16" y2="24" gradientUnits="userSpaceOnUse">
      <stop stop-color="white"/>
      <stop offset="1" stop-color="#999999" stop-opacity="0.9"/>
    </linearGradient>
  </defs>
</svg>